<svg width="24" height="25" fill="none" xmlns="http://www.w3.org/2000/svg"><g clip-path="url(#clip0)" fill="#fff"><path d="M22.151 15.704a.61.61 0 00-.598.623v5.528c0 1.032-.803 1.867-1.793 1.868H2.99c-.99 0-1.792-.836-1.794-1.868V5.63C1.197 4.6 2 3.764 2.99 3.762h5.307a.61.61 0 00.597-.622.61.61 0 00-.597-.623H2.989C1.339 2.52.002 3.912 0 5.63v16.226c.002 1.718 1.339 3.11 2.989 3.113H19.76c1.65-.002 2.987-1.395 2.989-3.113v-5.529a.61.61 0 00-.598-.623z"/><path d="M22.512.916a2.614 2.614 0 00-3.804 0L8.045 12.024a.629.629 0 00-.154.274L6.49 17.572a.64.64 0 00.153.606c.152.159.375.22.582.16l5.063-1.46c.1-.03.19-.085.263-.16l10.664-11.11a2.888 2.888 0 000-3.961l-.702-.731zM9.347 12.429l8.727-9.092L20.89 6.27l-8.728 9.092-2.814-2.932zm-.562 1.175l2.248 2.343-3.11.897.862-3.24zm13.584-8.875l-.634.66-2.815-2.932.634-.66a1.452 1.452 0 012.113 0l.701.73a1.605 1.605 0 010 2.202z"/></g><defs><clipPath id="clip0"><path fill="#fff" d="M0 0h24v25H0z"/></clipPath></defs></svg>