<svg width="133" height="105" fill="none" xmlns="http://www.w3.org/2000/svg"><path d="M15.815 104.892h101.872c8.445 0 15.313-6.825 15.313-15.217v-61.71c0-8.393-6.868-15.217-15.313-15.217H96.9l-1.82-6.1C94.339 3.31 91.269.861 87.658.861H45.843c-3.51 0-6.615 2.437-7.437 5.817l-.048.208-1.659 5.861H15.813C7.368 12.747.5 19.572.5 27.964v61.71c.002 8.393 6.873 15.218 15.315 15.218zM117.687 17.82c5.63 0 10.209 4.55 10.209 10.144v61.711c0 5.595-4.579 10.144-10.209 10.144H15.815c-5.63 0-10.208-4.55-10.208-10.144v-61.71c0-5.596 4.578-10.145 10.208-10.145h24.75l2.794-9.904a2.56 2.56 0 012.486-1.985H87.66a2.53 2.53 0 012.486 1.988l2.95 9.9h24.592zm-50.94 71.74c17.862 0 32.394-14.438 32.394-32.186 0-17.75-14.531-32.188-32.394-32.188-17.857 0-32.386 14.44-32.386 32.188 0 17.746 14.53 32.186 32.386 32.186zm0-59.304c15.048 0 27.29 12.163 27.29 27.116s-12.243 27.113-27.29 27.113c-15.044 0-27.282-12.163-27.282-27.113 0-14.953 12.24-27.116 27.282-27.116zM19.11 27.234c2.603 0 4.709 2.097 4.709 4.679 0 2.584-2.106 4.679-4.71 4.679-2.6 0-4.705-2.095-4.705-4.679.002-2.582 2.108-4.68 4.706-4.68z" fill="#F7F7F7"/></svg>