<svg width="81" height="36" fill="none" xmlns="http://www.w3.org/2000/svg"><path d="M34.215 16.377c-.19.28-.284.655-.473.936-1.134 1.872-2.835 3.182-4.82 4.117-.756.375-.756.843-.662 1.591.567 3.744-2.268 8.797-5.67 10.388-.285.094-.474.094-.757.28-.378.188-.85.188-1.323.375l-.85.281c-.946.094-.946-.655-1.135-1.217-.567-2.994-1.134-5.989-1.701-9.077-.284-1.497-.473-3.088-1.985-3.93-.19-.094-.378-.375-.378-.656 0-.187.094-.374.378-.374.378 0 .661.28 1.134.468-.473-2.714-1.04-5.334-1.418-7.861-.094-.374-.189-.842-.189-1.217 0-.561.19-1.03.756-1.123 4.159-.655 8.129-1.965 12.382-1.871 3.402.093 6.9 3.556 7.089 6.925 0 .28 0 .561-.095.842-.094.28 0 .749-.283 1.123z" fill="#70B22C"/><path d="M14.745 19.453c1.89 1.123 2.362 2.9 2.646 4.96.473 3.088 1.134 6.082 1.607 9.077.094.655.283.842.945.749.094.093.094.093.094.187s0 .094-.094.094c-4.253 1.216-8.223.655-11.815-2.06-.567-.374-1.04-.467-1.606-.28-2.174.562-4.254 1.123-6.522 1.497 1.512-1.216 2.93-2.526 4.537-3.743.567-.468.661-.842.378-1.59-2.647-5.522 0-12.167 5.765-14.506.19-.094.473-.468.756-.094.19.187.379.468.473.749.095.28.189.561.378.842.19.468.378.936.756 1.217.19.187.378.468.473.748.189.843.945 1.31 1.229 2.153z" fill="#fff"/><path d="M13.421 17.394c-.284-.093-.473-.374-.473-.748-.472-.281-.756-.75-.756-1.217-.094-.28-.283-.562-.378-.842 0-.281-.283-.562-.189-.843-.283-1.965-.283-3.93.378-5.895C13.705 2.795 19.376-.574 24.952.08c4.631.563 8.034 2.81 10.019 7.02.283.562.756.562 1.228.655 1.607.187 3.498.28 5.388.562-1.702.655-3.308 1.403-5.01 2.058-.661.281-1.04.562-.945 1.404.095 1.404-.378 2.714-.945 4.024-.378 0-.283-.187-.189-.468 0-4.96-4.253-8.422-9.262-7.58-3.214.562-6.428 1.217-9.641 1.778-.85.187-.85.562-.662 1.217l1.702 8.984v.561a20.601 20.601 0 01-1.513-1.123c-.945-.374-1.417-1.03-1.7-1.778zm8.413 16.109c3.97-2.153 6.332-5.334 6.143-9.826 0-1.685.378-2.527 1.89-3.089 1.607-.655 2.647-2.152 3.97-3.275-.472.842-.189 1.217.662 1.684 1.229.562 2.08 1.685 2.457 2.995 1.23 4.305-.189 8.984-5.576 10.107-3.12.655-6.238 1.123-9.357 1.685-.284 0-.284-.094-.19-.281zm42.626-4.305c.094-2.246.283-4.68.66-7.019.19-1.03.568-1.216 1.513-1.03.945.188 1.796.656 2.836 0 .661-.374 1.417.094 1.985.75 1.323 1.59.945 4.772-.662 5.989-.756.561-1.607.842-2.552.468-.662-.281-.85 0-.85.561 0 .749-.095 1.404 0 2.152.094.75-.284.843-.946.75-1.796-.188-2.08-.469-1.985-2.621zm8.318-4.305a3.23 3.23 0 01.567-2.246c.472-.842 1.323-1.685 2.268-1.591 1.512.28 3.025-.187 4.537.28.661.188.945.469.756 1.31-.378 1.685-.662 3.37-.567 5.054 0 .655-.19.843-.85.749h-.757c-.945-.187-1.796-.28-2.835-.094-1.89.281-3.12-1.123-3.12-3.462zm-33.365.187c0-2.246 1.04-4.024 2.741-4.024 1.607 0 3.214-.187 4.82.28.567.188.757.469.567 1.03-.378 1.685-.661 3.463-.661 5.24 0 .656-.284.843-.85.843h-.757c-.945-.187-1.796-.28-2.835-.094-1.796.281-3.025-1.122-3.025-3.275zm12.477-.374c-.473 1.123-.851 2.059-1.23 2.995-.283.748-.661.842-1.228.468-.284-.188-.662-.375-.945-.562-.567-.374-.662-.655-.19-1.216.946-1.217 1.608-2.527 1.986-4.025.189-.748.567-1.029 1.323-1.123 2.457-.374 2.646-.28 3.497 1.966.472 1.31.85 2.62 1.229 3.93.189.655 0 .936-.662 1.03-.095 0-.19 0-.19.093-2.078.562-1.984.562-2.74-1.404-.378-.748-.567-1.403-.85-2.152zm8.411 1.31c.662.842 1.418.655 1.985.28.567-.373.85-.093 1.134.375.378.562.095.749-.284 1.03-1.323 1.029-3.402 1.216-4.82.28-1.229-.842-1.701-2.34-1.229-4.117.473-1.685 1.89-2.808 3.687-2.808 1.323 0 2.457.749 2.646 1.778.284 1.123-.473 2.34-1.701 2.808-.378.093-.85.187-1.418.374z" fill="#fff"/><path d="M11.531 13.663c.19.28.284.562.284.936-.095.094-.19.094-.19 0-.094-.28-.188-.562-.188-.842 0-.094.094-.094.094-.094z" fill="#F5F9F1"/><path d="M30.34 13.289a2.228 2.228 0 01-2.269 2.246c-1.134 0-2.174-1.03-2.174-2.153 0-1.216 1.04-2.246 2.269-2.246 1.134 0 2.08.936 2.174 2.153z" fill="#fff"/><path d="M13.421 17.313c.567.562 1.04 1.123 1.607 1.778l-.284.28c-.472-.654-1.512-.935-1.323-2.058z" fill="#E7F2DC"/><path d="M12.193 15.254c.283.468.472.842.756 1.31-.85-.094-.756-.842-1.04-1.31.095-.094.19-.094.284 0z" fill="#F1F7EA"/><path d="M12.192 15.254h-.284c-.094-.187-.188-.468-.283-.655h.189c.284.187.284.468.378.655z" fill="#DBECC9"/><path d="M32.23 26.952c-1.04 0-1.985-.842-1.985-1.872 0-.936.85-1.871 1.89-1.871s1.985.935 1.985 1.965c0 .936-.85 1.778-1.89 1.778zm37.333-1.966c-.094.562-.283 1.123-1.04 1.217-.472 0-.756-.374-.661-.842.094-.562.189-1.404 1.04-1.404.567 0 .756.468.661 1.03zm7.751.001c0 .561-.189 1.216-.756 1.216-.662 0-.756-.655-.756-1.31 0-.561.189-1.216.756-1.123.661 0 .756.749.756 1.217zm-34.97-.187c.094-.468.189-1.123.85-1.03.662.094.662.749.662 1.404 0 .468-.189 1.123-.756 1.03-.662-.094-.756-.75-.756-1.404zm17.956-.281c.19-.655.379-1.123.946-1.217.189 0 .283.187.283.281-.094.655-.567.842-1.228.936z" fill="#70B22C"/></svg>