<svg width="17" height="17" fill="none" xmlns="http://www.w3.org/2000/svg"><path d="M14.572 0a.607.607 0 00-.608.607v2.218A7.878 7.878 0 00.607 8.5a.607.607 0 101.214 0 6.679 6.679 0 0111.605-4.508l-2.69.897a.608.608 0 10.384 1.153l3.643-1.214a.607.607 0 00.416-.578V.607A.607.607 0 0014.572 0zm1.214 7.893a.607.607 0 00-.607.607 6.679 6.679 0 01-11.605 4.508l2.69-.897a.608.608 0 10-.384-1.154l-3.643 1.215a.607.607 0 00-.415.578v3.643a.607.607 0 101.214 0v-2.218A7.878 7.878 0 0016.393 8.5a.607.607 0 00-.607-.607z" fill="#72B62B"/></svg>